3100 0 2 0           
20 CST MICROWAVE STUDIO 14 ACIS 31.0.1 NT 24 Mon Mar 27 16:07:51 2023 
1 9.9999999999999995e-07 1e-10 
T @77 7NY3KJPMEGQZHJP24XC9H4VB35SK5NQUGBC4PVP4YAKMRJ673CM3FJQ379A4FE73F8QUFXPEF8DMM 
name_attrib-gen-attrib $-1 -1 $-1 $-1 $-1 2 1 1 1 1 1 1 1 1 1 1 1 1 1 1 1 1 1 @17 VirtualBackground #
body $2 -1 -1 $-1 0 $3 $-1 $-1 T -5 271.60000000000002 -152.00893958881312 5 271.60000000000002 151.99106041118677 #
rgb_color-st-attrib $-1 -1 $4 $-1 $1 2 1 2 1 1 1 1 1 1 1 1 1 1 1 0 1 1 1 0.80000001192092896 0.80000001192092896 0.80000001192092896 #
lump $-1 -1 -1 $-1 $5 $6 $1 T -5 271.60000000000002 -152.00893958881312 5 271.60000000000002 -108.00893958881313 #
name_attrib-gen-attrib $-1 -1 $7 $2 $1 2 1 1 1 1 1 1 1 1 1 1 1 1 1 0 1 1 1 @27 c0.800000 0.800000 0.800000 #
lump $-1 -1 -1 $-1 $8 $9 $1 T -5 271.60000000000002 1.9910604111868129 5 271.60000000000002 45.991060411186787 #
shell $-1 -1 -1 $-1 $-1 $-1 $10 $-1 $3 T -5 271.60000000000002 -152.00893958881312 5 271.60000000000002 -108.00893958881313 #
integer_attrib-name_attrib-gen-attrib $-1 -1 $11 $4 $1 2 1 1 1 1 1 1 1 1 1 1 1 1 1 0 1 1 1 @4 type 6 #
lump $-1 -1 -1 $-1 $12 $13 $1 T -5 271.60000000000002 -46.008939588813185 5 271.60000000000002 -2.0089395888131869 #
shell $-1 -1 -1 $-1 $-1 $-1 $14 $-1 $5 T -5 271.60000000000002 1.9910604111868129 5 271.60000000000002 45.991060411186787 #
face $15 -1 -1 $-1 $-1 $16 $6 $-1 $17 forward double out F F #
name_attrib-gen-attrib $-1 -1 $18 $7 $1 2 1 1 1 1 1 1 1 1 1 1 1 1 1 0 1 1 1 @4 mPEC #
lump $-1 -1 -1 $-1 $19 $20 $1 T -5 271.60000000000002 -96.008939588813149 5 271.60000000000002 -58.008939588813156 #
shell $-1 -1 -1 $-1 $-1 $-1 $21 $-1 $8 T -5 271.60000000000002 -46.008939588813185 5 271.60000000000002 -2.0089395888131869 #
face $22 -1 -1 $-1 $-1 $23 $9 $-1 $24 forward double out T -5 271.60000000000002 1.9910604111868129 5 271.60000000000002 45.991060411186787 F #
name_attrib-gen-attrib $-1 -1 $25 $-1 $10 0 0 0 0 1 1 1 1 1 1 1 0 1 0 0 1 0 1 @4 bbox #
loop $-1 -1 -1 $-1 $-1 $26 $10 T -5 271.60000000000002 -152.00893958881312 5 271.60000000000002 -108.00893958881313 periphery $17 F #
plane-surface $-1 -1 -1 $-1 5 271.60000000000002 -152.00893958881312 1.2246467991473525e-16 -0.99999999999999956 0 0 0 0.99999999999999956 forward_v I I I I #
name_attrib-gen-attrib $-1 -1 $27 $11 $1 2 1 1 1 1 1 1 1 1 1 1 1 1 1 0 1 1 1 @58 nFractionated Dipole/FractionatedDipole:FractionatedDipole #
lump $-1 -1 -1 $-1 $28 $29 $1 T -5 271.60000000000002 107.99106041118675 5 271.60000000000002 151.99106041118677 #
shell $-1 -1 -1 $-1 $-1 $-1 $30 $-1 $12 T -5 271.60000000000002 -96.008939588813149 5 271.60000000000002 -58.008939588813156 #
face $31 -1 -1 $-1 $-1 $32 $13 $-1 $33 forward double out T -5 271.60000000000002 -46.008939588813185 5 271.60000000000002 -2.0089395888131869 F #
name_attrib-gen-attrib $-1 -1 $34 $-1 $14 0 0 0 0 1 1 1 1 1 1 1 0 1 0 0 1 0 1 @4 bbox #
loop $-1 -1 -1 $-1 $-1 $35 $14 T -5 271.60000000000002 1.9910604111868129 5 271.60000000000002 45.991060411186787 unknown #
plane-surface $-1 -1 -1 $-1 5 271.60000000000002 1.9910604111868129 1.2246467991473525e-16 -0.99999999999999956 0 0 0 0.99999999999999956 forward_v I I I I #
integer_attrib-name_attrib-gen-attrib $-1 -1 $36 $15 $10 2 0 0 1 1 1 1 1 1 1 1 1 1 1 0 1 1 1 @3 fif 0 #
coedge $-1 -1 -1 $-1 $37 $38 $-1 $39 forward $16 $-1 #
name_attrib-gen-attrib $-1 -1 $40 $18 $1 2 1 1 1 1 1 1 1 1 1 1 1 1 1 0 1 1 1 @17 abody_is_no_solid #
lump $-1 -1 -1 $-1 $-1 $41 $1 T -5 271.60000000000002 57.991060411186758 5 271.60000000000002 95.991060411186751 #
shell $-1 -1 -1 $-1 $-1 $-1 $42 $-1 $19 T -5 271.60000000000002 107.99106041118675 5 271.60000000000002 151.99106041118677 #
face $43 -1 -1 $-1 $-1 $44 $20 $-1 $45 forward double out T -5 271.60000000000002 -96.008939588813149 5 271.60000000000002 -58.008939588813156 F #
name_attrib-gen-attrib $-1 -1 $46 $-1 $21 0 0 0 0 1 1 1 1 1 1 1 0 1 0 0 1 0 1 @4 bbox #
loop $-1 -1 -1 $-1 $-1 $47 $21 T -5 271.60000000000002 -46.008939588813185 5 271.60000000000002 -2.0089395888131869 unknown #
plane-surface $-1 -1 -1 $-1 5 271.60000000000002 -46.008939588813185 1.2246467991473525e-16 -0.99999999999999956 0 0 0 0.99999999999999956 forward_v I I I I #
integer_attrib-name_attrib-gen-attrib $-1 -1 $48 $22 $14 2 0 0 1 1 1 1 1 1 1 1 1 1 1 0 1 1 1 @3 fif 0 #
coedge $-1 -1 -1 $-1 $49 $50 $-1 $51 forward $23 $-1 #
integer_attrib-name_attrib-gen-attrib $-1 -1 $-1 $25 $10 2 1 1 1 1 1 1 1 1 1 1 1 1 1 0 1 1 1 @3 pid 4 #
coedge $-1 -1 -1 $-1 $52 $26 $-1 $53 forward $16 $-1 #
coedge $-1 -1 -1 $-1 $26 $52 $-1 $54 forward $16 $-1 #
edge $55 -1 -1 $-1 $56 0 $57 44 $26 $58 forward @7 unknown T 5 271.60000000000002 -152.00893958881312 5 271.60000000000002 -108.00893958881313 #
real_attrib-name_attrib-gen-attrib $-1 -1 $59 $27 $1 0 0 0 0 1 1 1 1 1 1 1 0 1 0 0 1 0 1 @8 bboxzmax 151.99106041118677 #
shell $-1 -1 -1 $-1 $-1 $-1 $60 $-1 $28 T -5 271.60000000000002 57.991060411186758 5 271.60000000000002 95.991060411186751 #
face $61 -1 -1 $-1 $-1 $62 $29 $-1 $63 forward double out T -5 271.60000000000002 107.99106041118675 5 271.60000000000002 151.99106041118677 F #
name_attrib-gen-attrib $-1 -1 $64 $-1 $30 0 0 0 0 1 1 1 1 1 1 1 0 1 0 0 1 0 1 @4 bbox #
loop $-1 -1 -1 $-1 $-1 $65 $30 T -5 271.60000000000002 -96.008939588813149 5 271.60000000000002 -58.008939588813156 unknown #
plane-surface $-1 -1 -1 $-1 5 271.60000000000002 -96.008939588813149 1.2246467991473525e-16 -0.99999999999999956 0 0 0 0.99999999999999956 forward_v I I I I #
integer_attrib-name_attrib-gen-attrib $-1 -1 $66 $31 $21 2 0 0 1 1 1 1 1 1 1 1 1 1 1 0 1 1 1 @3 fif 0 #
coedge $-1 -1 -1 $-1 $67 $68 $-1 $69 forward $32 $-1 #
integer_attrib-name_attrib-gen-attrib $-1 -1 $-1 $34 $14 2 1 1 1 1 1 1 1 1 1 1 1 1 1 0 1 1 1 @3 pid 3 #
coedge $-1 -1 -1 $-1 $70 $35 $-1 $71 forward $23 $-1 #
coedge $-1 -1 -1 $-1 $35 $70 $-1 $72 forward $23 $-1 #
edge $73 -1 -1 $-1 $74 0 $75 44 $35 $76 forward @7 unknown T 5 271.60000000000002 1.9910604111868129 5 271.60000000000002 45.991060411186787 #
coedge $-1 -1 -1 $-1 $38 $37 $-1 $77 forward $16 $-1 #
edge $78 -1 -1 $-1 $57 0 $79 10 $37 $80 forward @7 unknown T -5 271.60000000000002 -108.00893958881313 5 271.60000000000002 -108.00893958881313 #
edge $81 -1 -1 $-1 $82 0 $56 10 $38 $83 forward @7 unknown T -5 271.60000000000002 -152.00893958881312 5 271.60000000000002 -152.00893958881312 #
name_attrib-gen-attrib $-1 -1 $84 $-1 $39 0 0 0 0 1 1 1 1 1 1 1 0 1 0 0 1 0 1 @4 bbox #
vertex $85 -1 -1 $-1 $39 $86 #
vertex $87 -1 -1 $-1 $39 $88 #
straight-curve $-1 -1 -1 $-1 5 271.60000000000002 -152.00893958881312 0 0 0.99999999999999889 I I #
real_attrib-name_attrib-gen-attrib $-1 -1 $89 $40 $1 0 0 0 0 1 1 1 1 1 1 1 0 1 0 0 1 0 1 @8 bboxzmin -152.00893958881312 #
face $90 -1 -1 $-1 $-1 $91 $41 $-1 $92 forward double out T -5 271.60000000000002 57.991060411186758 5 271.60000000000002 95.991060411186751 F #
name_attrib-gen-attrib $-1 -1 $93 $-1 $42 0 0 0 0 1 1 1 1 1 1 1 0 1 0 0 1 0 1 @4 bbox #
loop $-1 -1 -1 $-1 $-1 $94 $42 T -5 271.60000000000002 107.99106041118675 5 271.60000000000002 151.99106041118677 unknown #
plane-surface $-1 -1 -1 $-1 5 271.60000000000002 107.99106041118675 1.2246467991473525e-16 -0.99999999999999956 0 0 0 0.99999999999999956 forward_v I I I I #
integer_attrib-name_attrib-gen-attrib $-1 -1 $95 $43 $30 2 0 0 1 1 1 1 1 1 1 1 1 1 1 0 1 1 1 @3 fif 0 #
coedge $-1 -1 -1 $-1 $96 $97 $-1 $98 forward $44 $-1 #
integer_attrib-name_attrib-gen-attrib $-1 -1 $-1 $46 $21 2 1 1 1 1 1 1 1 1 1 1 1 1 1 0 1 1 1 @3 pid 6 #
coedge $-1 -1 -1 $-1 $99 $47 $-1 $100 forward $32 $-1 #
coedge $-1 -1 -1 $-1 $47 $99 $-1 $101 forward $32 $-1 #
edge $102 -1 -1 $-1 $103 0 $104 44 $47 $105 forward @7 unknown T 5 271.60000000000002 -46.008939588813185 5 271.60000000000002 -2.0089395888131869 #
coedge $-1 -1 -1 $-1 $50 $49 $-1 $106 forward $23 $-1 #
edge $107 -1 -1 $-1 $75 0 $108 10 $49 $109 forward @7 unknown T -5 271.60000000000002 45.991060411186787 5 271.60000000000002 45.991060411186787 #
edge $110 -1 -1 $-1 $111 0 $74 10 $50 $112 forward @7 unknown T -5 271.60000000000002 1.9910604111868129 5 271.60000000000002 1.9910604111868129 #
name_attrib-gen-attrib $-1 -1 $113 $-1 $51 0 0 0 0 1 1 1 1 1 1 1 0 1 0 0 1 0 1 @4 bbox #
vertex $114 -1 -1 $-1 $51 $115 #
vertex $116 -1 -1 $-1 $51 $117 #
straight-curve $-1 -1 -1 $-1 5 271.60000000000002 1.9910604111868129 0 0 0.99999999999999889 I I #
edge $118 -1 -1 $-1 $79 0 $82 44 $52 $119 forward @7 unknown T -5 271.60000000000002 -152.00893958881312 -5 271.60000000000002 -108.00893958881313 #
name_attrib-gen-attrib $-1 -1 $120 $-1 $53 0 0 0 0 1 1 1 1 1 1 1 0 1 0 0 1 0 1 @4 bbox #
vertex $121 -1 -1 $-1 $53 $122 #
straight-curve $-1 -1 -1 $-1 5 271.60000000000002 -108.00893958881313 -1 -1.224646799147353e-16 0 I I #
name_attrib-gen-attrib $-1 -1 $123 $-1 $54 0 0 0 0 1 1 1 1 1 1 1 0 1 0 0 1 0 1 @4 bbox #
vertex $124 -1 -1 $-1 $77 $125 #
straight-curve $-1 -1 -1 $-1 -5 271.60000000000002 -152.00893958881312 1 1.224646799147353e-16 0 I I #
name_attrib-gen-attrib $-1 -1 $126 $55 $39 2 1 1 1 1 1 1 1 1 1 1 1 1 1 0 1 1 1 @3 eif #
name_attrib-gen-attrib $-1 -1 $127 $-1 $56 0 0 0 0 1 1 1 1 1 1 1 0 1 0 0 1 0 1 @4 bbox #
point $-1 -1 -1 $-1 5 271.60000000000002 -152.00893958881312 #
name_attrib-gen-attrib $-1 -1 $128 $-1 $57 0 0 0 0 1 1 1 1 1 1 1 0 1 0 0 1 0 1 @4 bbox #
point $-1 -1 -1 $-1 5 271.60000000000002 -108.00893958881313 #
real_attrib-name_attrib-gen-attrib $-1 -1 $129 $59 $1 0 0 0 0 1 1 1 1 1 1 1 0 1 0 0 1 0 1 @8 bboxymax 271.60000000000002 #
name_attrib-gen-attrib $-1 -1 $130 $-1 $60 0 0 0 0 1 1 1 1 1 1 1 0 1 0 0 1 0 1 @4 bbox #
loop $-1 -1 -1 $-1 $-1 $131 $60 T -5 271.60000000000002 57.991060411186758 5 271.60000000000002 95.991060411186751 unknown #
plane-surface $-1 -1 -1 $-1 5 271.60000000000002 57.991060411186758 1.2246467991473525e-16 -0.99999999999999956 0 0 0 0.99999999999999956 forward_v I I I I #
integer_attrib-name_attrib-gen-attrib $-1 -1 $132 $61 $42 2 0 0 1 1 1 1 1 1 1 1 1 1 1 0 1 1 1 @3 fif 0 #
coedge $-1 -1 -1 $-1 $133 $134 $-1 $135 forward $62 $-1 #
integer_attrib-name_attrib-gen-attrib $-1 -1 $-1 $64 $30 2 1 1 1 1 1 1 1 1 1 1 1 1 1 0 1 1 1 @3 pid 5 #
coedge $-1 -1 -1 $-1 $136 $65 $-1 $137 forward $44 $-1 #
coedge $-1 -1 -1 $-1 $65 $136 $-1 $138 forward $44 $-1 #
edge $139 -1 -1 $-1 $140 0 $141 37.999999999999986 $65 $142 forward @7 unknown T 5 271.60000000000002 -96.008939588813149 5 271.60000000000002 -58.008939588813156 #
coedge $-1 -1 -1 $-1 $68 $67 $-1 $143 forward $32 $-1 #
edge $144 -1 -1 $-1 $104 0 $145 10 $67 $146 forward @7 unknown T -5 271.60000000000002 -2.0089395888131869 5 271.60000000000002 -2.0089395888131869 #
edge $147 -1 -1 $-1 $148 0 $103 10 $68 $149 forward @7 unknown T -5 271.60000000000002 -46.008939588813185 5 271.60000000000002 -46.008939588813185 #
name_attrib-gen-attrib $-1 -1 $150 $-1 $69 0 0 0 0 1 1 1 1 1 1 1 0 1 0 0 1 0 1 @4 bbox #
vertex $151 -1 -1 $-1 $69 $152 #
vertex $153 -1 -1 $-1 $69 $154 #
straight-curve $-1 -1 -1 $-1 5 271.60000000000002 -46.008939588813185 0 0 0.99999999999999889 I I #
edge $155 -1 -1 $-1 $108 0 $111 44 $70 $156 forward @7 unknown T -5 271.60000000000002 1.9910604111868129 -5 271.60000000000002 45.991060411186787 #
name_attrib-gen-attrib $-1 -1 $157 $-1 $71 0 0 0 0 1 1 1 1 1 1 1 0 1 0 0 1 0 1 @4 bbox #
vertex $158 -1 -1 $-1 $71 $159 #
straight-curve $-1 -1 -1 $-1 5 271.60000000000002 45.991060411186787 -1 -1.224646799147353e-16 0 I I #
name_attrib-gen-attrib $-1 -1 $160 $-1 $72 0 0 0 0 1 1 1 1 1 1 1 0 1 0 0 1 0 1 @4 bbox #
vertex $161 -1 -1 $-1 $106 $162 #
straight-curve $-1 -1 -1 $-1 -5 271.60000000000002 1.9910604111868129 1 1.224646799147353e-16 0 I I #
name_attrib-gen-attrib $-1 -1 $163 $73 $51 2 1 1 1 1 1 1 1 1 1 1 1 1 1 0 1 1 1 @3 eif #
name_attrib-gen-attrib $-1 -1 $164 $-1 $74 0 0 0 0 1 1 1 1 1 1 1 0 1 0 0 1 0 1 @4 bbox #
point $-1 -1 -1 $-1 5 271.60000000000002 1.9910604111868129 #
name_attrib-gen-attrib $-1 -1 $165 $-1 $75 0 0 0 0 1 1 1 1 1 1 1 0 1 0 0 1 0 1 @4 bbox #
point $-1 -1 -1 $-1 5 271.60000000000002 45.991060411186787 #
name_attrib-gen-attrib $-1 -1 $166 $-1 $77 0 0 0 0 1 1 1 1 1 1 1 0 1 0 0 1 0 1 @4 bbox #
straight-curve $-1 -1 -1 $-1 -5 271.60000000000002 -108.00893958881313 0 0 -0.99999999999999889 I I #
name_attrib-gen-attrib $-1 -1 $167 $78 $53 2 1 1 1 1 1 1 1 1 1 1 1 1 1 0 1 1 1 @3 eif #
name_attrib-gen-attrib $-1 -1 $168 $-1 $79 0 0 0 0 1 1 1 1 1 1 1 0 1 0 0 1 0 1 @4 bbox #
point $-1 -1 -1 $-1 -5 271.60000000000002 -108.00893958881313 #
name_attrib-gen-attrib $-1 -1 $169 $81 $54 2 1 1 1 1 1 1 1 1 1 1 1 1 1 0 1 1 1 @3 eif #
name_attrib-gen-attrib $-1 -1 $170 $-1 $82 0 0 0 0 1 1 1 1 1 1 1 0 1 0 0 1 0 1 @4 bbox #
point $-1 -1 -1 $-1 -5 271.60000000000002 -152.00893958881312 #
integer_attrib-name_attrib-gen-attrib $-1 -1 $-1 $84 $39 2 1 1 1 1 1 1 1 1 1 1 1 1 1 0 1 1 1 @3 pid 13 #
integer_attrib-name_attrib-gen-attrib $-1 -1 $-1 $85 $56 2 1 1 1 1 1 1 1 1 1 1 1 1 1 0 1 1 1 @3 pid 13 #
integer_attrib-name_attrib-gen-attrib $-1 -1 $-1 $87 $57 2 1 1 1 1 1 1 1 1 1 1 1 1 1 0 1 1 1 @3 pid 14 #
real_attrib-name_attrib-gen-attrib $-1 -1 $171 $89 $1 0 0 0 0 1 1 1 1 1 1 1 0 1 0 0 1 0 1 @8 bboxymin 271.60000000000002 #
integer_attrib-name_attrib-gen-attrib $-1 -1 $172 $90 $60 2 0 0 1 1 1 1 1 1 1 1 1 1 1 0 1 1 1 @3 fif 0 #
coedge $-1 -1 -1 $-1 $173 $174 $-1 $175 forward $91 $-1 #
integer_attrib-name_attrib-gen-attrib $-1 -1 $-1 $93 $42 2 1 1 1 1 1 1 1 1 1 1 1 1 1 0 1 1 1 @3 pid 1 #
coedge $-1 -1 -1 $-1 $176 $94 $-1 $177 forward $62 $-1 #
coedge $-1 -1 -1 $-1 $94 $176 $-1 $178 forward $62 $-1 #
edge $179 -1 -1 $-1 $180 0 $181 44 $94 $182 forward @7 unknown T 5 271.60000000000002 107.99106041118675 5 271.60000000000002 151.99106041118677 #
coedge $-1 -1 -1 $-1 $97 $96 $-1 $183 forward $44 $-1 #
edge $184 -1 -1 $-1 $141 0 $185 10 $96 $186 forward @7 unknown T -5 271.60000000000002 -58.008939588813156 5 271.60000000000002 -58.008939588813156 #
edge $187 -1 -1 $-1 $188 0 $140 10 $97 $189 forward @7 unknown T -5 271.60000000000002 -96.008939588813149 5 271.60000000000002 -96.008939588813149 #
name_attrib-gen-attrib $-1 -1 $190 $-1 $98 0 0 0 0 1 1 1 1 1 1 1 0 1 0 0 1 0 1 @4 bbox #
vertex $191 -1 -1 $-1 $98 $192 #
vertex $193 -1 -1 $-1 $98 $194 #
straight-curve $-1 -1 -1 $-1 5 271.60000000000002 -96.008939588813149 0 0 0.99999999999999889 I I #
edge $195 -1 -1 $-1 $145 0 $148 44 $99 $196 forward @7 unknown T -5 271.60000000000002 -46.008939588813185 -5 271.60000000000002 -2.0089395888131869 #
name_attrib-gen-attrib $-1 -1 $197 $-1 $100 0 0 0 0 1 1 1 1 1 1 1 0 1 0 0 1 0 1 @4 bbox #
vertex $198 -1 -1 $-1 $100 $199 #
straight-curve $-1 -1 -1 $-1 5 271.60000000000002 -2.0089395888131869 -1 -1.224646799147353e-16 0 I I #
name_attrib-gen-attrib $-1 -1 $200 $-1 $101 0 0 0 0 1 1 1 1 1 1 1 0 1 0 0 1 0 1 @4 bbox #
vertex $201 -1 -1 $-1 $143 $202 #
straight-curve $-1 -1 -1 $-1 -5 271.60000000000002 -46.008939588813185 1 1.224646799147353e-16 0 I I #
name_attrib-gen-attrib $-1 -1 $203 $102 $69 2 1 1 1 1 1 1 1 1 1 1 1 1 1 0 1 1 1 @3 eif #
name_attrib-gen-attrib $-1 -1 $204 $-1 $103 0 0 0 0 1 1 1 1 1 1 1 0 1 0 0 1 0 1 @4 bbox #
point $-1 -1 -1 $-1 5 271.60000000000002 -46.008939588813185 #
name_attrib-gen-attrib $-1 -1 $205 $-1 $104 0 0 0 0 1 1 1 1 1 1 1 0 1 0 0 1 0 1 @4 bbox #
point $-1 -1 -1 $-1 5 271.60000000000002 -2.0089395888131869 #
name_attrib-gen-attrib $-1 -1 $206 $-1 $106 0 0 0 0 1 1 1 1 1 1 1 0 1 0 0 1 0 1 @4 bbox #
straight-curve $-1 -1 -1 $-1 -5 271.60000000000002 45.991060411186787 0 0 -0.99999999999999889 I I #
name_attrib-gen-attrib $-1 -1 $207 $107 $71 2 1 1 1 1 1 1 1 1 1 1 1 1 1 0 1 1 1 @3 eif #
name_attrib-gen-attrib $-1 -1 $208 $-1 $108 0 0 0 0 1 1 1 1 1 1 1 0 1 0 0 1 0 1 @4 bbox #
point $-1 -1 -1 $-1 -5 271.60000000000002 45.991060411186787 #
name_attrib-gen-attrib $-1 -1 $209 $110 $72 2 1 1 1 1 1 1 1 1 1 1 1 1 1 0 1 1 1 @3 eif #
name_attrib-gen-attrib $-1 -1 $210 $-1 $111 0 0 0 0 1 1 1 1 1 1 1 0 1 0 0 1 0 1 @4 bbox #
point $-1 -1 -1 $-1 -5 271.60000000000002 1.9910604111868129 #
integer_attrib-name_attrib-gen-attrib $-1 -1 $-1 $113 $51 2 1 1 1 1 1 1 1 1 1 1 1 1 1 0 1 1 1 @3 pid 9 #
integer_attrib-name_attrib-gen-attrib $-1 -1 $-1 $114 $74 2 1 1 1 1 1 1 1 1 1 1 1 1 1 0 1 1 1 @3 pid 9 #
integer_attrib-name_attrib-gen-attrib $-1 -1 $-1 $116 $75 2 1 1 1 1 1 1 1 1 1 1 1 1 1 0 1 1 1 @3 pid 10 #
name_attrib-gen-attrib $-1 -1 $211 $118 $77 2 1 1 1 1 1 1 1 1 1 1 1 1 1 0 1 1 1 @3 eif #
integer_attrib-name_attrib-gen-attrib $-1 -1 $-1 $120 $53 2 1 1 1 1 1 1 1 1 1 1 1 1 1 0 1 1 1 @3 pid 14 #
integer_attrib-name_attrib-gen-attrib $-1 -1 $-1 $121 $79 2 1 1 1 1 1 1 1 1 1 1 1 1 1 0 1 1 1 @3 pid 15 #
integer_attrib-name_attrib-gen-attrib $-1 -1 $-1 $123 $54 2 1 1 1 1 1 1 1 1 1 1 1 1 1 0 1 1 1 @3 pid 16 #
integer_attrib-name_attrib-gen-attrib $-1 -1 $-1 $124 $82 2 1 1 1 1 1 1 1 1 1 1 1 1 1 0 1 1 1 @3 pid 16 #
real_attrib-name_attrib-gen-attrib $-1 -1 $212 $129 $1 0 0 0 0 1 1 1 1 1 1 1 0 1 0 0 1 0 1 @8 bboxxmax 5 #
integer_attrib-name_attrib-gen-attrib $-1 -1 $-1 $130 $60 2 1 1 1 1 1 1 1 1 1 1 1 1 1 0 1 1 1 @3 pid 2 #
coedge $-1 -1 -1 $-1 $213 $131 $-1 $214 forward $91 $-1 #
coedge $-1 -1 -1 $-1 $131 $213 $-1 $215 forward $91 $-1 #
edge $216 -1 -1 $-1 $217 0 $218 38 $131 $219 forward @7 unknown T 5 271.60000000000002 57.991060411186758 5 271.60000000000002 95.991060411186751 #
coedge $-1 -1 -1 $-1 $134 $133 $-1 $220 forward $62 $-1 #
edge $221 -1 -1 $-1 $181 0 $222 10 $133 $223 forward @7 unknown T -5 271.60000000000002 151.99106041118677 5 271.60000000000002 151.99106041118677 #
edge $224 -1 -1 $-1 $225 0 $180 10 $134 $226 forward @7 unknown T -5 271.60000000000002 107.99106041118675 5 271.60000000000002 107.99106041118675 #
name_attrib-gen-attrib $-1 -1 $227 $-1 $135 0 0 0 0 1 1 1 1 1 1 1 0 1 0 0 1 0 1 @4 bbox #
vertex $228 -1 -1 $-1 $135 $229 #
vertex $230 -1 -1 $-1 $135 $231 #
straight-curve $-1 -1 -1 $-1 5 271.60000000000002 107.99106041118675 0 0 0.99999999999999889 I I #
edge $232 -1 -1 $-1 $185 0 $188 37.999999999999986 $136 $233 forward @7 unknown T -5 271.60000000000002 -96.008939588813149 -5 271.60000000000002 -58.008939588813156 #
name_attrib-gen-attrib $-1 -1 $234 $-1 $137 0 0 0 0 1 1 1 1 1 1 1 0 1 0 0 1 0 1 @4 bbox #
vertex $235 -1 -1 $-1 $137 $236 #
straight-curve $-1 -1 -1 $-1 5 271.60000000000002 -58.008939588813156 -1 -1.224646799147353e-16 0 I I #
name_attrib-gen-attrib $-1 -1 $237 $-1 $138 0 0 0 0 1 1 1 1 1 1 1 0 1 0 0 1 0 1 @4 bbox #
vertex $238 -1 -1 $-1 $183 $239 #
straight-curve $-1 -1 -1 $-1 -5 271.60000000000002 -96.008939588813149 1 1.224646799147353e-16 0 I I #
name_attrib-gen-attrib $-1 -1 $240 $139 $98 2 1 1 1 1 1 1 1 1 1 1 1 1 1 0 1 1 1 @3 eif #
name_attrib-gen-attrib $-1 -1 $241 $-1 $140 0 0 0 0 1 1 1 1 1 1 1 0 1 0 0 1 0 1 @4 bbox #
point $-1 -1 -1 $-1 5 271.60000000000002 -96.008939588813149 #
name_attrib-gen-attrib $-1 -1 $242 $-1 $141 0 0 0 0 1 1 1 1 1 1 1 0 1 0 0 1 0 1 @4 bbox #
point $-1 -1 -1 $-1 5 271.60000000000002 -58.008939588813156 #
name_attrib-gen-attrib $-1 -1 $243 $-1 $143 0 0 0 0 1 1 1 1 1 1 1 0 1 0 0 1 0 1 @4 bbox #
straight-curve $-1 -1 -1 $-1 -5 271.60000000000002 -2.0089395888131869 0 0 -0.99999999999999889 I I #
name_attrib-gen-attrib $-1 -1 $244 $144 $100 2 1 1 1 1 1 1 1 1 1 1 1 1 1 0 1 1 1 @3 eif #
name_attrib-gen-attrib $-1 -1 $245 $-1 $145 0 0 0 0 1 1 1 1 1 1 1 0 1 0 0 1 0 1 @4 bbox #
point $-1 -1 -1 $-1 -5 271.60000000000002 -2.0089395888131869 #
name_attrib-gen-attrib $-1 -1 $246 $147 $101 2 1 1 1 1 1 1 1 1 1 1 1 1 1 0 1 1 1 @3 eif #
name_attrib-gen-attrib $-1 -1 $247 $-1 $148 0 0 0 0 1 1 1 1 1 1 1 0 1 0 0 1 0 1 @4 bbox #
point $-1 -1 -1 $-1 -5 271.60000000000002 -46.008939588813185 #
integer_attrib-name_attrib-gen-attrib $-1 -1 $-1 $150 $69 2 1 1 1 1 1 1 1 1 1 1 1 1 1 0 1 1 1 @3 pid 21 #
integer_attrib-name_attrib-gen-attrib $-1 -1 $-1 $151 $103 2 1 1 1 1 1 1 1 1 1 1 1 1 1 0 1 1 1 @3 pid 21 #
integer_attrib-name_attrib-gen-attrib $-1 -1 $-1 $153 $104 2 1 1 1 1 1 1 1 1 1 1 1 1 1 0 1 1 1 @3 pid 22 #
name_attrib-gen-attrib $-1 -1 $248 $155 $106 2 1 1 1 1 1 1 1 1 1 1 1 1 1 0 1 1 1 @3 eif #
integer_attrib-name_attrib-gen-attrib $-1 -1 $-1 $157 $71 2 1 1 1 1 1 1 1 1 1 1 1 1 1 0 1 1 1 @3 pid 10 #
integer_attrib-name_attrib-gen-attrib $-1 -1 $-1 $158 $108 2 1 1 1 1 1 1 1 1 1 1 1 1 1 0 1 1 1 @3 pid 11 #
integer_attrib-name_attrib-gen-attrib $-1 -1 $-1 $160 $72 2 1 1 1 1 1 1 1 1 1 1 1 1 1 0 1 1 1 @3 pid 12 #
integer_attrib-name_attrib-gen-attrib $-1 -1 $-1 $161 $111 2 1 1 1 1 1 1 1 1 1 1 1 1 1 0 1 1 1 @3 pid 12 #
integer_attrib-name_attrib-gen-attrib $-1 -1 $-1 $166 $77 2 1 1 1 1 1 1 1 1 1 1 1 1 1 0 1 1 1 @3 pid 15 #
real_attrib-name_attrib-gen-attrib $-1 -1 $249 $171 $1 0 0 0 0 1 1 1 1 1 1 1 0 1 0 0 1 0 1 @8 bboxxmin -5 #
coedge $-1 -1 -1 $-1 $174 $173 $-1 $250 forward $91 $-1 #
edge $251 -1 -1 $-1 $218 0 $252 10 $173 $253 forward @7 unknown T -5 271.60000000000002 95.991060411186751 5 271.60000000000002 95.991060411186751 #
edge $254 -1 -1 $-1 $255 0 $217 10 $174 $256 forward @7 unknown T -5 271.60000000000002 57.991060411186758 5 271.60000000000002 57.991060411186758 #
name_attrib-gen-attrib $-1 -1 $257 $-1 $175 0 0 0 0 1 1 1 1 1 1 1 0 1 0 0 1 0 1 @4 bbox #
vertex $258 -1 -1 $-1 $175 $259 #
vertex $260 -1 -1 $-1 $175 $261 #
straight-curve $-1 -1 -1 $-1 5 271.60000000000002 57.991060411186758 0 0 0.99999999999999889 I I #
edge $262 -1 -1 $-1 $222 0 $225 44 $176 $263 forward @7 unknown T -5 271.60000000000002 107.99106041118675 -5 271.60000000000002 151.99106041118677 #
name_attrib-gen-attrib $-1 -1 $264 $-1 $177 0 0 0 0 1 1 1 1 1 1 1 0 1 0 0 1 0 1 @4 bbox #
vertex $265 -1 -1 $-1 $177 $266 #
straight-curve $-1 -1 -1 $-1 5 271.60000000000002 151.99106041118677 -1 -1.224646799147353e-16 0 I I #
name_attrib-gen-attrib $-1 -1 $267 $-1 $178 0 0 0 0 1 1 1 1 1 1 1 0 1 0 0 1 0 1 @4 bbox #
vertex $268 -1 -1 $-1 $220 $269 #
straight-curve $-1 -1 -1 $-1 -5 271.60000000000002 107.99106041118675 1 1.224646799147353e-16 0 I I #
name_attrib-gen-attrib $-1 -1 $270 $179 $135 2 1 1 1 1 1 1 1 1 1 1 1 1 1 0 1 1 1 @3 eif #
name_attrib-gen-attrib $-1 -1 $271 $-1 $180 0 0 0 0 1 1 1 1 1 1 1 0 1 0 0 1 0 1 @4 bbox #
point $-1 -1 -1 $-1 5 271.60000000000002 107.99106041118675 #
name_attrib-gen-attrib $-1 -1 $272 $-1 $181 0 0 0 0 1 1 1 1 1 1 1 0 1 0 0 1 0 1 @4 bbox #
point $-1 -1 -1 $-1 5 271.60000000000002 151.99106041118677 #
name_attrib-gen-attrib $-1 -1 $273 $-1 $183 0 0 0 0 1 1 1 1 1 1 1 0 1 0 0 1 0 1 @4 bbox #
straight-curve $-1 -1 -1 $-1 -5 271.60000000000002 -58.008939588813156 0 0 -0.99999999999999889 I I #
name_attrib-gen-attrib $-1 -1 $274 $184 $137 2 1 1 1 1 1 1 1 1 1 1 1 1 1 0 1 1 1 @3 eif #
name_attrib-gen-attrib $-1 -1 $275 $-1 $185 0 0 0 0 1 1 1 1 1 1 1 0 1 0 0 1 0 1 @4 bbox #
point $-1 -1 -1 $-1 -5 271.60000000000002 -58.008939588813156 #
name_attrib-gen-attrib $-1 -1 $276 $187 $138 2 1 1 1 1 1 1 1 1 1 1 1 1 1 0 1 1 1 @3 eif #
name_attrib-gen-attrib $-1 -1 $277 $-1 $188 0 0 0 0 1 1 1 1 1 1 1 0 1 0 0 1 0 1 @4 bbox #
point $-1 -1 -1 $-1 -5 271.60000000000002 -96.008939588813149 #
integer_attrib-name_attrib-gen-attrib $-1 -1 $-1 $190 $98 2 1 1 1 1 1 1 1 1 1 1 1 1 1 0 1 1 1 @3 pid 17 #
integer_attrib-name_attrib-gen-attrib $-1 -1 $-1 $191 $140 2 1 1 1 1 1 1 1 1 1 1 1 1 1 0 1 1 1 @3 pid 17 #
integer_attrib-name_attrib-gen-attrib $-1 -1 $-1 $193 $141 2 1 1 1 1 1 1 1 1 1 1 1 1 1 0 1 1 1 @3 pid 18 #
name_attrib-gen-attrib $-1 -1 $278 $195 $143 2 1 1 1 1 1 1 1 1 1 1 1 1 1 0 1 1 1 @3 eif #
integer_attrib-name_attrib-gen-attrib $-1 -1 $-1 $197 $100 2 1 1 1 1 1 1 1 1 1 1 1 1 1 0 1 1 1 @3 pid 22 #
integer_attrib-name_attrib-gen-attrib $-1 -1 $-1 $198 $145 2 1 1 1 1 1 1 1 1 1 1 1 1 1 0 1 1 1 @3 pid 23 #
integer_attrib-name_attrib-gen-attrib $-1 -1 $-1 $200 $101 2 1 1 1 1 1 1 1 1 1 1 1 1 1 0 1 1 1 @3 pid 24 #
integer_attrib-name_attrib-gen-attrib $-1 -1 $-1 $201 $148 2 1 1 1 1 1 1 1 1 1 1 1 1 1 0 1 1 1 @3 pid 24 #
integer_attrib-name_attrib-gen-attrib $-1 -1 $-1 $206 $106 2 1 1 1 1 1 1 1 1 1 1 1 1 1 0 1 1 1 @3 pid 11 #
integer_attrib-name_attrib-gen-attrib $-1 -1 $279 $212 $1 0 0 0 0 1 1 1 1 1 1 1 0 1 0 0 1 0 1 @6 bboxnv 24 #
edge $280 -1 -1 $-1 $252 0 $255 38 $213 $281 forward @7 unknown T -5 271.60000000000002 57.991060411186758 -5 271.60000000000002 95.991060411186751 #
name_attrib-gen-attrib $-1 -1 $282 $-1 $214 0 0 0 0 1 1 1 1 1 1 1 0 1 0 0 1 0 1 @4 bbox #
vertex $283 -1 -1 $-1 $214 $284 #
straight-curve $-1 -1 -1 $-1 5 271.60000000000002 95.991060411186751 -1 -1.224646799147353e-16 0 I I #
name_attrib-gen-attrib $-1 -1 $285 $-1 $215 0 0 0 0 1 1 1 1 1 1 1 0 1 0 0 1 0 1 @4 bbox #
vertex $286 -1 -1 $-1 $250 $287 #
straight-curve $-1 -1 -1 $-1 -5 271.60000000000002 57.991060411186758 1 1.224646799147353e-16 0 I I #
name_attrib-gen-attrib $-1 -1 $288 $216 $175 2 1 1 1 1 1 1 1 1 1 1 1 1 1 0 1 1 1 @3 eif #
name_attrib-gen-attrib $-1 -1 $289 $-1 $217 0 0 0 0 1 1 1 1 1 1 1 0 1 0 0 1 0 1 @4 bbox #
point $-1 -1 -1 $-1 5 271.60000000000002 57.991060411186758 #
name_attrib-gen-attrib $-1 -1 $290 $-1 $218 0 0 0 0 1 1 1 1 1 1 1 0 1 0 0 1 0 1 @4 bbox #
point $-1 -1 -1 $-1 5 271.60000000000002 95.991060411186751 #
name_attrib-gen-attrib $-1 -1 $291 $-1 $220 0 0 0 0 1 1 1 1 1 1 1 0 1 0 0 1 0 1 @4 bbox #
straight-curve $-1 -1 -1 $-1 -5 271.60000000000002 151.99106041118677 0 0 -0.99999999999999889 I I #
name_attrib-gen-attrib $-1 -1 $292 $221 $177 2 1 1 1 1 1 1 1 1 1 1 1 1 1 0 1 1 1 @3 eif #
name_attrib-gen-attrib $-1 -1 $293 $-1 $222 0 0 0 0 1 1 1 1 1 1 1 0 1 0 0 1 0 1 @4 bbox #
point $-1 -1 -1 $-1 -5 271.60000000000002 151.99106041118677 #
name_attrib-gen-attrib $-1 -1 $294 $224 $178 2 1 1 1 1 1 1 1 1 1 1 1 1 1 0 1 1 1 @3 eif #
name_attrib-gen-attrib $-1 -1 $295 $-1 $225 0 0 0 0 1 1 1 1 1 1 1 0 1 0 0 1 0 1 @4 bbox #
point $-1 -1 -1 $-1 -5 271.60000000000002 107.99106041118675 #
integer_attrib-name_attrib-gen-attrib $-1 -1 $-1 $227 $135 2 1 1 1 1 1 1 1 1 1 1 1 1 1 0 1 1 1 @3 pid 1 #
integer_attrib-name_attrib-gen-attrib $-1 -1 $-1 $228 $180 2 1 1 1 1 1 1 1 1 1 1 1 1 1 0 1 1 1 @3 pid 1 #
integer_attrib-name_attrib-gen-attrib $-1 -1 $-1 $230 $181 2 1 1 1 1 1 1 1 1 1 1 1 1 1 0 1 1 1 @3 pid 2 #
name_attrib-gen-attrib $-1 -1 $296 $232 $183 2 1 1 1 1 1 1 1 1 1 1 1 1 1 0 1 1 1 @3 eif #
integer_attrib-name_attrib-gen-attrib $-1 -1 $-1 $234 $137 2 1 1 1 1 1 1 1 1 1 1 1 1 1 0 1 1 1 @3 pid 18 #
integer_attrib-name_attrib-gen-attrib $-1 -1 $-1 $235 $185 2 1 1 1 1 1 1 1 1 1 1 1 1 1 0 1 1 1 @3 pid 19 #
integer_attrib-name_attrib-gen-attrib $-1 -1 $-1 $237 $138 2 1 1 1 1 1 1 1 1 1 1 1 1 1 0 1 1 1 @3 pid 20 #
integer_attrib-name_attrib-gen-attrib $-1 -1 $-1 $238 $188 2 1 1 1 1 1 1 1 1 1 1 1 1 1 0 1 1 1 @3 pid 20 #
integer_attrib-name_attrib-gen-attrib $-1 -1 $-1 $243 $143 2 1 1 1 1 1 1 1 1 1 1 1 1 1 0 1 1 1 @3 pid 23 #
integer_attrib-name_attrib-gen-attrib $-1 -1 $297 $249 $1 0 0 0 0 1 1 1 1 1 1 1 0 1 0 0 1 0 1 @6 bboxne 24 #
name_attrib-gen-attrib $-1 -1 $298 $-1 $250 0 0 0 0 1 1 1 1 1 1 1 0 1 0 0 1 0 1 @4 bbox #
straight-curve $-1 -1 -1 $-1 -5 271.60000000000002 95.991060411186751 0 0 -0.99999999999999889 I I #
name_attrib-gen-attrib $-1 -1 $299 $251 $214 2 1 1 1 1 1 1 1 1 1 1 1 1 1 0 1 1 1 @3 eif #
name_attrib-gen-attrib $-1 -1 $300 $-1 $252 0 0 0 0 1 1 1 1 1 1 1 0 1 0 0 1 0 1 @4 bbox #
point $-1 -1 -1 $-1 -5 271.60000000000002 95.991060411186751 #
name_attrib-gen-attrib $-1 -1 $301 $254 $215 2 1 1 1 1 1 1 1 1 1 1 1 1 1 0 1 1 1 @3 eif #
name_attrib-gen-attrib $-1 -1 $302 $-1 $255 0 0 0 0 1 1 1 1 1 1 1 0 1 0 0 1 0 1 @4 bbox #
point $-1 -1 -1 $-1 -5 271.60000000000002 57.991060411186758 #
integer_attrib-name_attrib-gen-attrib $-1 -1 $-1 $257 $175 2 1 1 1 1 1 1 1 1 1 1 1 1 1 0 1 1 1 @3 pid 5 #
integer_attrib-name_attrib-gen-attrib $-1 -1 $-1 $258 $217 2 1 1 1 1 1 1 1 1 1 1 1 1 1 0 1 1 1 @3 pid 5 #
integer_attrib-name_attrib-gen-attrib $-1 -1 $-1 $260 $218 2 1 1 1 1 1 1 1 1 1 1 1 1 1 0 1 1 1 @3 pid 6 #
name_attrib-gen-attrib $-1 -1 $303 $262 $220 2 1 1 1 1 1 1 1 1 1 1 1 1 1 0 1 1 1 @3 eif #
integer_attrib-name_attrib-gen-attrib $-1 -1 $-1 $264 $177 2 1 1 1 1 1 1 1 1 1 1 1 1 1 0 1 1 1 @3 pid 2 #
integer_attrib-name_attrib-gen-attrib $-1 -1 $-1 $265 $222 2 1 1 1 1 1 1 1 1 1 1 1 1 1 0 1 1 1 @3 pid 3 #
integer_attrib-name_attrib-gen-attrib $-1 -1 $-1 $267 $178 2 1 1 1 1 1 1 1 1 1 1 1 1 1 0 1 1 1 @3 pid 4 #
integer_attrib-name_attrib-gen-attrib $-1 -1 $-1 $268 $225 2 1 1 1 1 1 1 1 1 1 1 1 1 1 0 1 1 1 @3 pid 4 #
integer_attrib-name_attrib-gen-attrib $-1 -1 $-1 $273 $183 2 1 1 1 1 1 1 1 1 1 1 1 1 1 0 1 1 1 @3 pid 19 #
integer_attrib-name_attrib-gen-attrib $-1 -1 $304 $279 $1 0 0 0 0 1 1 1 1 1 1 1 0 1 0 0 1 0 1 @6 bboxnf 6 #
name_attrib-gen-attrib $-1 -1 $305 $280 $250 2 1 1 1 1 1 1 1 1 1 1 1 1 1 0 1 1 1 @3 eif #
integer_attrib-name_attrib-gen-attrib $-1 -1 $-1 $282 $214 2 1 1 1 1 1 1 1 1 1 1 1 1 1 0 1 1 1 @3 pid 6 #
integer_attrib-name_attrib-gen-attrib $-1 -1 $-1 $283 $252 2 1 1 1 1 1 1 1 1 1 1 1 1 1 0 1 1 1 @3 pid 7 #
integer_attrib-name_attrib-gen-attrib $-1 -1 $-1 $285 $215 2 1 1 1 1 1 1 1 1 1 1 1 1 1 0 1 1 1 @3 pid 8 #
integer_attrib-name_attrib-gen-attrib $-1 -1 $-1 $286 $255 2 1 1 1 1 1 1 1 1 1 1 1 1 1 0 1 1 1 @3 pid 8 #
integer_attrib-name_attrib-gen-attrib $-1 -1 $-1 $291 $220 2 1 1 1 1 1 1 1 1 1 1 1 1 1 0 1 1 1 @3 pid 3 #
integer_attrib-name_attrib-gen-attrib $-1 -1 $306 $297 $1 2 1 1 1 1 1 1 1 1 1 1 1 1 1 0 1 1 1 @17 object_visibility 0 #
integer_attrib-name_attrib-gen-attrib $-1 -1 $-1 $298 $250 2 1 1 1 1 1 1 1 1 1 1 1 1 1 0 1 1 1 @3 pid 7 #
integer_attrib-name_attrib-gen-attrib $-1 -1 $307 $304 $1 2 1 1 1 1 1 1 1 1 1 1 1 1 1 0 1 1 1 @3 noe 24 #
integer_attrib-name_attrib-gen-attrib $-1 -1 $-1 $306 $1 2 1 1 1 1 1 1 1 1 1 1 1 1 1 0 1 1 1 @3 nof 6 #
End-of-ACIS-data 